<?xml version="1.0" encoding="UTF-8"?>
<!-- Created with Inkscape (http://www.inkscape.org/) -->
<svg width="512" height="512" version="1.1" viewBox="0 0 512 512" xmlns="http://www.w3.org/2000/svg">
 <path d="m256.25 510.48c-12.07-2.6219-26.749-11.768-37.212-23.187-26.624-29.055-35.419-73.5-20.461-103.4 7.3537-14.698 20.845-24.426 35.716-25.755 6.9448-0.62042 7.202-0.73663 6.9595-3.1442-0.1385-1.375-1.376-11.242-2.75-21.927-1.374-10.685-2.4982-20.178-2.4982-21.096 0-1.4901 1.4336-1.3444 13.414 1.3642l13.414 3.0327 1.5248 5.0631c2.1881 7.2656 6.7816 21.915 11.935 38.063l4.4681 14 7.1816 7.4609c27.968 29.056 37.543 73.957 22.293 104.54-4.349 8.721-8.4781 13.521-15.902 18.486-11.189 7.4838-23.706 9.6189-38.083 6.496zm19.345-20.609c6.4235-1.6175 13.4-8.2389 16.933-16.072 2.4267-5.3795 2.9041-7.9084 3.266-17.3 0.49107-12.747-0.56791-19.511-4.9194-31.421-5.742-15.716-18.886-32.795-30.458-39.577-24.218-14.193-43.572-4.5518-47.43 23.628-2.363 17.258 2.816 36.558 14.62 54.482 8.2555 12.536 18.415 20.954 30.156 24.988 7.6335 2.6224 11.408 2.8921 17.833 1.2742zm157.91-162.41c-23.116-4.3254-42.674-14.453-58.018-30.044-7.215-7.3308-8.7678-8.4048-15.5-10.72-4.115-1.4152-15.299-5.3331-24.854-8.7063l-17.372-6.1332-38.786 17.332-22.735-5.1842c-130.69-29.802-218-59.687-248.18-84.959-4.3411-3.6346-9.0612-10.374-8.0052-11.43 0.25447-0.25447 11.26 1.5056 24.456 3.9114s60.893 10.928 105.99 18.938c45.1 8.01 93.475 16.602 107.5 19.094 14.025 2.4918 36.525 6.5155 50 8.9417 46.858 8.4369 64.51 11.507 66.136 11.503 1.1828-3e-3 1.8323-1.3102 2.343-4.7159 2.4926-16.622 18.701-32.106 39.743-37.968 9.7181-2.7072 34.606-2.4652 45.333 0.4408 18.124 4.9099 29.62 10.469 41.681 20.155 18.335 14.724 27.191 29.866 28.433 48.617 0.67073 10.124-0.83947 17.259-5.46 25.796-5.569 10.289-20.187 20.305-35.209 24.124-9.2801 2.359-27.641 2.8523-37.5 1.0076zm34.886-22.422c20.582-7.0812 27.815-23.048 18.48-40.794-1.6529-3.1422-3.314-5.9453-3.6913-6.2291-0.37729-0.28376-1.9212-2.1738-3.431-4.2001-7.1293-9.5685-25.513-20.6-41.744-25.049-11.248-3.0833-29.083-3.0593-38.574 0.0519-18.006 5.9024-26.572 20.513-20.76 35.411 8.5249 21.854 33.511 38.748 63.834 43.158 5.84 0.84946 20.441-0.4754 25.886-2.3488zm-207.37-33.891c11.27-5.9887 10.639-21.094-1.124-26.936-6.0455-3.0022-11.624-1.9467-16.738 3.1669-3.0849 3.0848-3.5726 4.2644-3.9562 9.5677-0.39171 5.4152-0.1495 6.4267 2.3116 9.6534 4.7702 6.2541 12.781 8.1216 19.507 4.5476zm16.984-55.879c-1.375-0.25191-14.597-2.65-29.382-5.329s-26.977-4.9992-27.094-5.1558c-0.1166-0.15664-0.72896-5.0098-1.3608-10.785-0.63185-5.775-2.9669-24.225-5.189-41-2.2221-16.775-5.6169-42.65-7.5441-57.5-4.0484-31.195-4.3028-33.145-8.4164-64.5-1.6957-12.925-3.3501-25.188-3.6764-27.25-0.53604-3.3882-0.37845-3.75 1.6334-3.75 9.1917 0 23.778 17.269 35.136 41.599 14.855 31.82 29.875 81.067 43.279 141.9 6.6242 30.064 7.0811 32.539 5.9747 32.364-0.47371-0.0749-1.9863-0.34229-3.3613-0.59419z"/>
</svg>
