<?xml version="1.0" encoding="UTF-8"?>
<!-- Created with Inkscape (http://www.inkscape.org/) -->
<svg width="682.67" height="682.67" version="1.1" viewBox="0 0 682.67 682.67" xmlns="http://www.w3.org/2000/svg">
 <path d="m335.94 654.97c-6.4611-1.3618-16.661-4.2627-22.667-6.4464-12.574-4.572-240.55-107.71-251.59-113.82-18.153-10.049-34.811-27.228-45.342-46.759-10.362-19.218-14.679-38.815-14.608-66.306 0.0408-15.854 3.3862-43.881 5.4887-45.983 0.35135-0.35135 67.799 26.502 149.88 59.674l149.24 60.312 0.8622 19.332c1.064 23.858 3.6641 35.791 11.238 51.58 9.0319 18.827 21.524 29.577 39.946 34.375 10.825 2.8196 16.844 2.5769 32.104-1.2943 42.946-10.894 71.216-37.858 99.945-95.328 11.248-22.5 18.41-39.609 33.462-79.927 31.372-84.037 95.998-274.82 93.656-276.48-2.2029-1.5615-333.6-66.404-334.53-65.454-0.6392 0.65564-23.46 62.977-50.713 138.49-27.253 75.515-50.343 138.82-51.311 140.67-4.3003 8.2256-14.739 14.715-23.598 14.67-16.401-0.0837-29.43-15.648-26.447-31.593 1.1272-6.0266 107.25-300.21 110.85-307.3 3.1828-6.2612 9.5752-11.143 17.294-13.208 5.7407-1.5354 16.147 0.38543 201.98 37.28 107.76 21.395 198.47 39.835 201.58 40.979 11.605 4.2708 18.585 17.321 16.332 30.537-3.5758 20.975-70.85 220.56-106.29 315.33-31.46 84.131-56.381 128.75-89.529 160.29-19.643 18.692-39.485 30.65-65.062 39.209-29.573 9.8959-57.628 12.342-82.183 7.167z" fill="#fff" stroke-width="1.3333"/>
</svg>
