<?xml version="1.0" encoding="UTF-8"?>
<!-- Created with Inkscape (http://www.inkscape.org/) -->
<svg width="512" height="512" version="1.1" viewBox="0 0 512 512" xmlns="http://www.w3.org/2000/svg">
 <path d="m140.51 508.65c-12.329-3.2316-24.436-7.8046-51.381-19.408-10.192-4.3889-22.237-8.877-26.768-9.9735-17.948-4.3439-34.355-14.963-41.095-26.597-1.564-2.6998-3.5056-8.3314-4.3146-12.515-1.3014-6.7296-1.1519-9.299 1.2979-22.3 3.3943-18.013 2.9972-34.025-1.8684-75.339-5.3499-45.426-4.4245-50.597 13.502-75.436 13.829-19.162 13.901-19.35 13.889-36.148-0.0061-7.8896-1.054-23.926-2.3291-35.637-5.1497-47.293-4.9449-49.681 5.6074-65.377 20.963-31.182 71.828-83.931 89.751-93.074 4.6299-2.362 6.2184-2.463 26.825-1.7059 12.047 0.44265 32.195 1.4105 44.774 2.1507 17.565 1.0336 24.622 1.0044 30.418-0.12617 11.067-2.1587 32.192-9.4503 66.87-23.081 40.232-15.814 43.6-16.735 54.158-14.812 11.822 2.1541 31.918 9.1156 43.082 14.924 5.786 3.0102 12.49 7.8164 16.741 12.002 9.4376 9.2922 12.241 16.606 12.25 31.963 4e-3 6.1649 0.55481 13.182 1.2246 15.593 2.014 7.2504 8.8979 13.04 23.945 20.137 15.421 7.2741 22.78 13.148 26.241 20.947 3.1772 7.1581 2.999 15.136-0.84803 37.959l-3.1929 18.942 4.9808 12.415c6.4329 16.034 10.91 33.813 10.91 43.32 0 7.3258-0.20309 7.8024-7.4864 17.566-10.786 14.459-10.877 17.053-1.3135 37.467 4.0203 8.5815 8.4269 19.229 9.7925 23.661 7.5115 24.378 6.2191 65.111-2.6075 82.18-3.217 6.221-11.719 14.024-25.5 23.404-7.2177 4.9126-15.157 11.421-17.642 14.462-9.2968 11.377-13.283 14.542-23.059 18.312-18.861 7.2734-50.626 14.122-102.52 22.102-54.389 8.3641-52.33 7.8172-91.861 24.397-14.053 5.8939-29.657 12.081-34.676 13.748-22.504 7.4773-39.667 8.6289-57.793 3.8778zm-14.626-90.133c10.614-2.7646 23.43-9.4851 45.864-24.05 22.7-14.738 22.511-14.688 42.373-11.19 5.6881 1.002 12.796 1.8225 15.794 1.8234 5.1302 1e-3 5.9043-0.47065 13.099-7.9911 9.6086-10.043 19.182-28.81 20.44-40.067 1.1057-9.8974 4.0411-16.144 10.188-21.682 6.1511-5.541 11.285-7.8556 27.473-12.385 21.242-5.9437 62.583-24.433 69.8-31.217 8.3201-7.8211 9.6121-18.948 4.3067-37.087-4.7591-16.271-3.9188-24.275 4.8669-46.359 9.6155-24.169 9.7529-27.01 2.5462-52.635-5.0356-17.905-5.7557-22.049-6.6611-38.326-0.55831-10.038-1.9234-21.818-3.0334-26.179l-2.0183-7.9286-29.728-8.6382-19.431 8.3609c-26.709 11.492-49.224 19.814-66.065 24.419-13.34 3.6471-15.308 3.868-32.452 3.6403-10.038-0.13329-30.017-0.75404-44.398-1.3794-24.127-1.0492-26.357-0.9719-28.866 1.0014-4.3991 3.4603-21.194 22.172-40.676 45.316l-18.163 21.578 2.03 22.223c2.8851 31.584 2.8939 66.226 0.01935 75.753-2.4901 8.2521-8.7086 19.419-17.286 31.041-9.205 12.472-9.3014 13.075-6.4509 40.327 1.3543 12.948 3.4071 33.74 4.5618 46.206l2.0994 22.665 5.1149 6.7747c11.653 15.435 26.441 20.729 44.652 15.986zm27.316-78.88c-15.979-4.3084-38.835-24.738-38.859-34.733-0.01-3.8871 1.0991-5.4247 10.16-14.097 9.0947-8.704 10.456-10.599 12.873-17.911 3.2973-9.9768 8.0672-15.548 13.312-15.548 6.2278 0 16.244 4.5163 22.857 10.306 3.4459 3.0171 9.4017 10.103 13.235 15.746 9.0949 13.389 8.8165 14.686-6.8651 31.993-6.0536 6.6808-12.027 16.476-12.027 19.722 0 1.4866-6.0116 6.2093-7.7685 6.103-0.74624-0.0451-3.8593-0.75688-6.9179-1.5816zm86.472-84.42c-7.5995-3.7964-8.7664-7.9899-7.8712-28.287l0.77814-17.642-3.8562-10.342c-2.1209-5.6881-4.302-13.08-4.8469-16.426-1.21-7.4296 0.40257-18.399 3.1511-21.436 1.1155-1.2326 6.4702-3.9528 11.899-6.0448 13.194-5.084 15.543-6.3572 26.905-14.584 28.397-20.56 41.906-17.521 41.963 9.4386 0.0162 7.6204 1.2959 11.258 6.043 17.177 6.8844 8.5844 10.803 25.787 8.4172 36.948-1.8715 8.7553-5.4662 11.848-26.304 22.633-14.574 7.5433-18.318 10.103-25.376 17.349-12.47 12.803-21.304 16.009-30.903 11.214z" fill="#fff" stroke-width="1.2167"/>
</svg>
